<?xml version="1.0" encoding="iso-8859-1"?>
<!-- Generator: Adobe Illustrator 19.0.0, SVG Export Plug-In . SVG Version: 6.00 Build 0)  -->
<svg version="1.1" id="Capa_1" xmlns="http://www.w3.org/2000/svg" xmlns:xlink="http://www.w3.org/1999/xlink" x="0px" y="0px"
	 viewBox="0 0 508 508" style="enable-background:new 0 0 508 508;" xml:space="preserve">
<path style="fill:#F2F2F2;" d="M486.85,508H21.25c-11.7,0-21.2-9.5-21.2-21.2V150c0-11.7,9.5-21.2,21.2-21.2h465.5
	c11.7,0,21.2,9.5,21.2,21.2v336.8C508.05,498.5,498.55,508,486.85,508z"/>
<path style="fill:#41596B;" d="M374.15,61.8h-58.3c0-34.1-27.7-61.8-61.8-61.8s-61.8,27.7-61.8,61.8h-58.4
	c-15.6,0-28.2,12.6-28.2,28.2v75.1h296.7V90C402.35,74.4,389.75,61.8,374.15,61.8z M254.05,29.9c17.6,0,31.8,14.3,31.8,31.9
	s-14.3,31.8-31.8,31.8c-17.6,0-31.9-14.3-31.9-31.8C222.15,44.2,236.45,29.9,254.05,29.9z"/>
<rect x="264.75" y="236.5" style="fill:#FFD05C;" width="185.3" height="26.4"/>
<rect x="264.75" y="323.4" style="fill:#65C5B8;" width="185.3" height="26.4"/>
<rect x="264.75" y="410.3" style="fill:#CDD5DF;" width="185.3" height="26.4"/>
<rect x="58.05" y="236.5" style="fill:#89D6F7;" width="174.5" height="200.2"/>
<path style="fill:#FFFFFF;" d="M168.55,357.5c14.6-8.2,24.4-23.7,24.4-41.6c0-26.3-21.4-47.7-47.7-47.7s-47.7,21.4-47.7,47.7
	c0,17.9,9.9,33.5,24.4,41.6c-34.2,10-59.2,41.6-59.2,79.1h165C227.75,399.2,202.75,367.6,168.55,357.5z"/>
<g>
</g>
<g>
</g>
<g>
</g>
<g>
</g>
<g>
</g>
<g>
</g>
<g>
</g>
<g>
</g>
<g>
</g>
<g>
</g>
<g>
</g>
<g>
</g>
<g>
</g>
<g>
</g>
<g>
</g>
</svg>
